<mxfile host="app.diagrams.net" modified="2022-07-07T02:34:19.618Z" agent="5.0 (Windows NT 10.0; Win64; x64) AppleWebKit/537.36 (KHTML, like Gecko) Chrome/103.0.0.0 Safari/537.36" etag="j_HMjhaTgI5foq-G0f-g" version="20.0.4" type="github">
  <diagram id="JeX9rl3rUgD13nwQGrPr" name="Page-1">
    <mxGraphModel dx="1422" dy="754" grid="1" gridSize="10" guides="1" tooltips="1" connect="1" arrows="1" fold="1" page="1" pageScale="1" pageWidth="827" pageHeight="1169" math="0" shadow="0">
      <root>
        <mxCell id="0" />
        <mxCell id="1" parent="0" />
        <mxCell id="nKsr4vJ9wWT-BAdVvBZN-21" style="edgeStyle=orthogonalEdgeStyle;rounded=0;orthogonalLoop=1;jettySize=auto;html=1;exitX=0.5;exitY=1;exitDx=0;exitDy=0;" edge="1" parent="1" source="nKsr4vJ9wWT-BAdVvBZN-1" target="nKsr4vJ9wWT-BAdVvBZN-10">
          <mxGeometry relative="1" as="geometry" />
        </mxCell>
        <mxCell id="nKsr4vJ9wWT-BAdVvBZN-26" style="edgeStyle=orthogonalEdgeStyle;rounded=0;orthogonalLoop=1;jettySize=auto;html=1;exitX=0.5;exitY=1;exitDx=0;exitDy=0;entryX=0.5;entryY=0;entryDx=0;entryDy=0;" edge="1" parent="1" source="nKsr4vJ9wWT-BAdVvBZN-1" target="nKsr4vJ9wWT-BAdVvBZN-11">
          <mxGeometry relative="1" as="geometry" />
        </mxCell>
        <mxCell id="nKsr4vJ9wWT-BAdVvBZN-27" style="edgeStyle=orthogonalEdgeStyle;rounded=0;orthogonalLoop=1;jettySize=auto;html=1;exitX=0.5;exitY=1;exitDx=0;exitDy=0;entryX=0.5;entryY=0;entryDx=0;entryDy=0;" edge="1" parent="1" source="nKsr4vJ9wWT-BAdVvBZN-1" target="nKsr4vJ9wWT-BAdVvBZN-12">
          <mxGeometry relative="1" as="geometry" />
        </mxCell>
        <mxCell id="nKsr4vJ9wWT-BAdVvBZN-28" style="edgeStyle=orthogonalEdgeStyle;rounded=0;orthogonalLoop=1;jettySize=auto;html=1;exitX=0.5;exitY=1;exitDx=0;exitDy=0;entryX=0.5;entryY=0;entryDx=0;entryDy=0;" edge="1" parent="1" source="nKsr4vJ9wWT-BAdVvBZN-1" target="nKsr4vJ9wWT-BAdVvBZN-13">
          <mxGeometry relative="1" as="geometry" />
        </mxCell>
        <mxCell id="nKsr4vJ9wWT-BAdVvBZN-29" style="edgeStyle=orthogonalEdgeStyle;rounded=0;orthogonalLoop=1;jettySize=auto;html=1;exitX=0.5;exitY=1;exitDx=0;exitDy=0;" edge="1" parent="1" source="nKsr4vJ9wWT-BAdVvBZN-1" target="nKsr4vJ9wWT-BAdVvBZN-14">
          <mxGeometry relative="1" as="geometry" />
        </mxCell>
        <mxCell id="nKsr4vJ9wWT-BAdVvBZN-30" style="edgeStyle=orthogonalEdgeStyle;rounded=0;orthogonalLoop=1;jettySize=auto;html=1;exitX=0.5;exitY=1;exitDx=0;exitDy=0;entryX=0.5;entryY=0;entryDx=0;entryDy=0;" edge="1" parent="1" source="nKsr4vJ9wWT-BAdVvBZN-1" target="nKsr4vJ9wWT-BAdVvBZN-9">
          <mxGeometry relative="1" as="geometry" />
        </mxCell>
        <mxCell id="nKsr4vJ9wWT-BAdVvBZN-1" value="&lt;font style=&quot;vertical-align: inherit;&quot;&gt;&lt;font style=&quot;vertical-align: inherit;&quot;&gt;票种管理&lt;/font&gt;&lt;/font&gt;" style="rounded=1;whiteSpace=wrap;html=1;" vertex="1" parent="1">
          <mxGeometry x="240" y="20" width="120" height="60" as="geometry" />
        </mxCell>
        <mxCell id="nKsr4vJ9wWT-BAdVvBZN-31" style="edgeStyle=orthogonalEdgeStyle;rounded=0;orthogonalLoop=1;jettySize=auto;html=1;exitX=0.5;exitY=1;exitDx=0;exitDy=0;entryX=0.5;entryY=0;entryDx=0;entryDy=0;" edge="1" parent="1" source="nKsr4vJ9wWT-BAdVvBZN-9" target="nKsr4vJ9wWT-BAdVvBZN-17">
          <mxGeometry relative="1" as="geometry" />
        </mxCell>
        <mxCell id="nKsr4vJ9wWT-BAdVvBZN-9" value="&lt;font style=&quot;vertical-align: inherit;&quot;&gt;&lt;font style=&quot;vertical-align: inherit;&quot;&gt;列表&lt;/font&gt;&lt;/font&gt;" style="rounded=0;whiteSpace=wrap;html=1;" vertex="1" parent="1">
          <mxGeometry x="20" y="160" width="80" height="30" as="geometry" />
        </mxCell>
        <mxCell id="nKsr4vJ9wWT-BAdVvBZN-38" value="" style="edgeStyle=orthogonalEdgeStyle;rounded=0;orthogonalLoop=1;jettySize=auto;html=1;" edge="1" parent="1" source="nKsr4vJ9wWT-BAdVvBZN-10" target="nKsr4vJ9wWT-BAdVvBZN-37">
          <mxGeometry relative="1" as="geometry" />
        </mxCell>
        <mxCell id="nKsr4vJ9wWT-BAdVvBZN-10" value="&lt;font style=&quot;vertical-align: inherit;&quot;&gt;&lt;font style=&quot;vertical-align: inherit;&quot;&gt;排序&lt;/font&gt;&lt;/font&gt;" style="rounded=0;whiteSpace=wrap;html=1;" vertex="1" parent="1">
          <mxGeometry x="120" y="160" width="80" height="30" as="geometry" />
        </mxCell>
        <mxCell id="nKsr4vJ9wWT-BAdVvBZN-33" style="edgeStyle=orthogonalEdgeStyle;rounded=0;orthogonalLoop=1;jettySize=auto;html=1;exitX=0.5;exitY=1;exitDx=0;exitDy=0;entryX=0.5;entryY=0;entryDx=0;entryDy=0;" edge="1" parent="1" source="nKsr4vJ9wWT-BAdVvBZN-11" target="nKsr4vJ9wWT-BAdVvBZN-17">
          <mxGeometry relative="1" as="geometry" />
        </mxCell>
        <mxCell id="nKsr4vJ9wWT-BAdVvBZN-11" value="&lt;font style=&quot;vertical-align: inherit;&quot;&gt;&lt;font style=&quot;vertical-align: inherit;&quot;&gt;添加（无）&lt;/font&gt;&lt;/font&gt;" style="rounded=0;whiteSpace=wrap;html=1;" vertex="1" parent="1">
          <mxGeometry x="220" y="160" width="80" height="30" as="geometry" />
        </mxCell>
        <mxCell id="nKsr4vJ9wWT-BAdVvBZN-34" style="edgeStyle=orthogonalEdgeStyle;rounded=0;orthogonalLoop=1;jettySize=auto;html=1;exitX=0.5;exitY=1;exitDx=0;exitDy=0;entryX=0.5;entryY=0;entryDx=0;entryDy=0;" edge="1" parent="1" source="nKsr4vJ9wWT-BAdVvBZN-12" target="nKsr4vJ9wWT-BAdVvBZN-17">
          <mxGeometry relative="1" as="geometry" />
        </mxCell>
        <mxCell id="nKsr4vJ9wWT-BAdVvBZN-12" value="&lt;font style=&quot;vertical-align: inherit;&quot;&gt;&lt;font style=&quot;vertical-align: inherit;&quot;&gt;修改（无）&lt;/font&gt;&lt;/font&gt;" style="rounded=0;whiteSpace=wrap;html=1;" vertex="1" parent="1">
          <mxGeometry x="320" y="160" width="80" height="30" as="geometry" />
        </mxCell>
        <mxCell id="nKsr4vJ9wWT-BAdVvBZN-42" style="edgeStyle=orthogonalEdgeStyle;rounded=0;orthogonalLoop=1;jettySize=auto;html=1;exitX=0.5;exitY=1;exitDx=0;exitDy=0;entryX=0.5;entryY=0;entryDx=0;entryDy=0;" edge="1" parent="1" source="nKsr4vJ9wWT-BAdVvBZN-13" target="nKsr4vJ9wWT-BAdVvBZN-17">
          <mxGeometry relative="1" as="geometry" />
        </mxCell>
        <mxCell id="nKsr4vJ9wWT-BAdVvBZN-13" value="&lt;font style=&quot;vertical-align: inherit;&quot;&gt;&lt;font style=&quot;vertical-align: inherit;&quot;&gt;删除（无）&lt;/font&gt;&lt;/font&gt;" style="rounded=0;whiteSpace=wrap;html=1;" vertex="1" parent="1">
          <mxGeometry x="420" y="160" width="80" height="30" as="geometry" />
        </mxCell>
        <mxCell id="nKsr4vJ9wWT-BAdVvBZN-43" style="edgeStyle=orthogonalEdgeStyle;rounded=0;orthogonalLoop=1;jettySize=auto;html=1;exitX=0.5;exitY=1;exitDx=0;exitDy=0;" edge="1" parent="1" source="nKsr4vJ9wWT-BAdVvBZN-14">
          <mxGeometry relative="1" as="geometry">
            <mxPoint x="300" y="410" as="targetPoint" />
          </mxGeometry>
        </mxCell>
        <mxCell id="nKsr4vJ9wWT-BAdVvBZN-14" value="&lt;font style=&quot;vertical-align: inherit;&quot;&gt;&lt;font style=&quot;vertical-align: inherit;&quot;&gt;详情（无）&lt;/font&gt;&lt;/font&gt;" style="rounded=0;whiteSpace=wrap;html=1;" vertex="1" parent="1">
          <mxGeometry x="520" y="160" width="80" height="30" as="geometry" />
        </mxCell>
        <mxCell id="nKsr4vJ9wWT-BAdVvBZN-17" value="&lt;font style=&quot;vertical-align: inherit;&quot;&gt;&lt;font style=&quot;vertical-align: inherit;&quot;&gt;服务接口&lt;/font&gt;&lt;/font&gt;" style="shape=process;whiteSpace=wrap;html=1;backgroundOutline=1;" vertex="1" parent="1">
          <mxGeometry x="240" y="410" width="120" height="60" as="geometry" />
        </mxCell>
        <mxCell id="nKsr4vJ9wWT-BAdVvBZN-39" style="edgeStyle=orthogonalEdgeStyle;rounded=0;orthogonalLoop=1;jettySize=auto;html=1;exitX=0.5;exitY=1;exitDx=0;exitDy=0;entryX=0.5;entryY=0;entryDx=0;entryDy=0;" edge="1" parent="1" source="nKsr4vJ9wWT-BAdVvBZN-37" target="nKsr4vJ9wWT-BAdVvBZN-17">
          <mxGeometry relative="1" as="geometry" />
        </mxCell>
        <mxCell id="nKsr4vJ9wWT-BAdVvBZN-40" value="&lt;font style=&quot;vertical-align: inherit;&quot;&gt;&lt;font style=&quot;vertical-align: inherit;&quot;&gt;Y&lt;/font&gt;&lt;/font&gt;" style="edgeLabel;html=1;align=center;verticalAlign=middle;resizable=0;points=[];" vertex="1" connectable="0" parent="nKsr4vJ9wWT-BAdVvBZN-39">
          <mxGeometry x="-0.175" y="1" relative="1" as="geometry">
            <mxPoint as="offset" />
          </mxGeometry>
        </mxCell>
        <mxCell id="nKsr4vJ9wWT-BAdVvBZN-37" value="&lt;font style=&quot;vertical-align: inherit;&quot;&gt;&lt;font style=&quot;vertical-align: inherit;&quot;&gt;校验排序数据&lt;/font&gt;&lt;/font&gt;" style="rhombus;whiteSpace=wrap;html=1;rounded=0;" vertex="1" parent="1">
          <mxGeometry x="120" y="330" width="80" height="40" as="geometry" />
        </mxCell>
      </root>
    </mxGraphModel>
  </diagram>
</mxfile>
